# xmcd
#
# Track frame offsets:
# 150
# 25059
# 48236
# 69622
# 91830
# 119286
# 151574
# 169718
# 187574
# 209590
# 228022
# 255702
#
# Disc length: 3794 seconds
#
# Revision: 0
# Processed by: cddbd v1.4PL0 Copyright (c) Steve Scherf et al.
# Submitted via: Audion 3.0.2 (http://www.panic.com/audion/)
#
DISCID=880ed00c
DTITLE=Wonderland 9 - Wonderland
DYEAR=1900
DGENRE=
TTITLE0=108I
TTITLE1=109
TTITLE2=110
TTITLE3=111
TTITLE4=112
TTITLE5=113
TTITLE6=114
TTITLE7=115
TTITLE8=116
TTITLE9=117
TTITLE10=118
TTITLE11=119
EXTD=
EXTT0=
EXTT1=
EXTT2=
EXTT3=
EXTT4=
EXTT5=
EXTT6=
EXTT7=
EXTT8=
EXTT9=
EXTT10=
EXTT11=
PLAYORDER=
